<?xml version="1.0" encoding="UTF-8"?>
<!DOCTYPE svg PUBLIC "-//W3C//DTD SVG 1.1//EN" "http://www.w3.org/Graphics/SVG/1.1/DTD/svg11.dtd">
<svg xmlns="http://www.w3.org/2000/svg" version="1.1" width="512px" height="512px" style="shape-rendering:geometricPrecision; text-rendering:geometricPrecision; image-rendering:optimizeQuality; fill-rule:evenodd; clip-rule:evenodd"
    xmlns:xlink="http://www.w3.org/1999/xlink">
    <defs>
        <linearGradient id="Gradient1" x1="0" x2="1" y1="0" y2="0">
            <stop offset="0%" stop-color="#fb923c"/>
            <stop offset="100%" stop-color="#fbbf24"/>
        </linearGradient>
    </defs>
    <g>
        <path style="opacity:0.948" fill="url(#Gradient1)" d="M 245.5,7.5 C 309.941,3.30477 359.774,27.9714 395,81.5C 401.964,93.8936 407.464,106.894 411.5,120.5C 463,132.5 493.5,164.5 503,216.5C 507.418,270.182 485.918,309.349 438.5,334C 428.245,338.418 417.578,341.418 406.5,343C 377.502,343.5 348.502,343.667 319.5,343.5C 319.176,357.745 319.51,371.912 320.5,386C 339.5,394.5 358.5,403 377.5,411.5C 385.512,400.107 396.179,396.607 409.5,401C 424.045,409.843 427.545,422.009 420,437.5C 410.209,448.243 398.709,450.41 385.5,444C 380.356,440.03 376.69,435.03 374.5,429C 351.14,418.903 327.973,408.403 305,397.5C 303.527,379.594 303.027,361.594 303.5,343.5C 290.167,343.5 276.833,343.5 263.5,343.5C 263.167,381.173 263.5,418.839 264.5,456.5C 279.869,465.113 283.703,477.446 276,493.5C 266.209,504.243 254.709,506.41 241.5,500C 230.757,490.209 228.59,478.709 235,465.5C 238.117,461.546 241.95,458.546 246.5,456.5C 247.5,418.839 247.833,381.173 247.5,343.5C 234.167,343.5 220.833,343.5 207.5,343.5C 207.973,361.594 207.473,379.594 206,397.5C 183.027,408.403 159.86,418.903 136.5,429C 129.959,445.103 118.292,450.77 101.5,446C 86.9547,437.157 83.4547,424.991 91,409.5C 100.791,398.757 112.291,396.59 125.5,403C 128.35,405.682 131.016,408.516 133.5,411.5C 152.5,403 171.5,394.5 190.5,386C 191.49,371.912 191.824,357.745 191.5,343.5C 157.498,343.667 123.498,343.5 89.5,343C 38.3865,331.883 10.7198,300.216 6.5,248C 7.83693,211.142 24.0036,182.975 55,163.5C 57.4972,119.17 80.9972,96.1704 125.5,94.5C 150.591,44.9529 190.591,15.9529 245.5,7.5 Z M 262.5,23.5 C 312.496,25.5723 351.33,47.239 379,88.5C 387.017,101.882 392.684,116.215 396,131.5C 396.465,132.931 397.299,134.097 398.5,135C 442.031,141.537 470.531,165.704 484,207.5C 492.93,252.056 478.763,287.223 441.5,313C 426.364,321.867 410.031,326.534 392.5,327C 296.167,327.667 199.833,327.667 103.5,327C 68.8731,325.287 44.3731,308.787 30,277.5C 16.241,232.09 29.9077,197.757 71,174.5C 68.7979,153.093 75.6312,135.26 91.5,121C 103.417,112.938 116.417,110.438 130.5,113.5C 132.541,112.764 134.541,111.931 136.5,111C 160.874,56.4599 202.874,27.2932 262.5,23.5 Z M 108.5,416.5 C 117.85,416.365 120.517,420.532 116.5,429C 107.956,432.322 104.123,429.489 105,420.5C 105.69,418.65 106.856,417.316 108.5,416.5 Z M 396.5,416.5 C 405.85,416.365 408.517,420.532 404.5,429C 395.956,432.322 392.123,429.489 393,420.5C 393.69,418.65 394.856,417.316 396.5,416.5 Z M 252.5,472.5 C 261.85,472.365 264.517,476.532 260.5,485C 251.956,488.322 248.123,485.489 249,476.5C 249.69,474.65 250.856,473.316 252.5,472.5 Z"/>
    </g>
</svg>
